#N canvas 150 173 663 547 10;
#X obj 35 49 tgl 15 0 empty empty empty 17 7 0 10 -262144 -1 -1 1 1
;
#X obj 37 134 int;
#X obj 69 135 + 1;
#X obj 45 164 mod 16;
#X obj 55 207 hradio 15 1 0 16 empty empty empty 0 -8 0 10 -262144
-1 -1 4;
#X obj 55 221 tgl 15 0 empty empty empty 17 7 0 10 -261234 -1 -1 0
1;
#X obj 47 322 gate;
#X obj 70 221 tgl 15 0 empty empty empty 17 7 0 10 -262144 -1 -1 1
1;
#X obj 76 322 gate;
#X obj 85 221 tgl 15 0 empty empty empty 17 7 0 10 -262144 -1 -1 0
1;
#X obj 105 322 gate;
#X obj 100 221 tgl 15 0 empty empty empty 17 7 0 10 -262144 -1 -1 1
1;
#X obj 134 322 gate;
#X obj 115 221 tgl 15 0 empty empty empty 17 7 0 10 -261234 -1 -1 1
1;
#X obj 163 322 gate;
#X obj 130 221 tgl 15 0 empty empty empty 17 7 0 10 -262144 -1 -1 1
1;
#X obj 191 322 gate;
#X obj 145 221 tgl 15 0 empty empty empty 17 7 0 10 -262144 -1 -1 0
1;
#X obj 220 322 gate;
#X obj 160 221 tgl 15 0 empty empty empty 17 7 0 10 -262144 -1 -1 1
1;
#X obj 250 322 gate;
#X obj 175 221 tgl 15 0 empty empty empty 17 7 0 10 -261234 -1 -1 0
1;
#X obj 279 322 gate;
#X obj 190 221 tgl 15 0 empty empty empty 17 7 0 10 -262144 -1 -1 1
1;
#X obj 308 322 gate;
#X obj 205 221 tgl 15 0 empty empty empty 17 7 0 10 -262144 -1 -1 1
1;
#X obj 337 322 gate;
#X obj 220 221 tgl 15 0 empty empty empty 17 7 0 10 -262144 -1 -1 1
1;
#X obj 367 322 gate;
#X obj 235 221 tgl 15 0 empty empty empty 17 7 0 10 -261234 -1 -1 0
1;
#X obj 395 322 gate;
#X obj 250 221 tgl 15 0 empty empty empty 17 7 0 10 -262144 -1 -1 1
1;
#X obj 424 322 gate;
#X obj 265 221 tgl 15 0 empty empty empty 17 7 0 10 -262144 -1 -1 0
1;
#X obj 453 322 gate;
#X obj 280 221 tgl 15 0 empty empty empty 17 7 0 10 -262144 -1 -1 1
1;
#X obj 482 322 gate;
#X text 115 203 4;
#X text 58 204 0;
#X text 177 204 8;
#X text 234 204 12;
#X obj 305 220 select 0 1 2 3 4 5 6 7 8 9 10 11 12 13 14 15;
#X obj 123 446 outlet;
#X obj 33 5 inlet on;
#X obj 78 42 inlet tempo;
#X obj 163 44 inlet steps;
#X floatatom 108 127 5 0 0 0 - - -;
#X obj 36 96 metro 200;
#X obj 229 117 select 0 1 2 3 4 5 6 7 8 9 10 11 12 13 14 15;
#X obj 253 43 inlet preset;
#X connect 0 0 1 0;
#X connect 0 0 47 0;
#X connect 1 0 2 0;
#X connect 1 0 3 0;
#X connect 2 0 1 1;
#X connect 3 0 4 0;
#X connect 4 0 41 0;
#X connect 5 0 6 0;
#X connect 6 0 42 0;
#X connect 7 0 8 0;
#X connect 8 0 42 0;
#X connect 9 0 10 0;
#X connect 10 0 42 0;
#X connect 11 0 12 0;
#X connect 12 0 42 0;
#X connect 13 0 14 0;
#X connect 14 0 42 0;
#X connect 15 0 16 0;
#X connect 16 0 42 0;
#X connect 17 0 18 0;
#X connect 18 0 42 0;
#X connect 19 0 20 0;
#X connect 20 0 42 0;
#X connect 21 0 22 0;
#X connect 22 0 42 0;
#X connect 23 0 24 0;
#X connect 24 0 42 0;
#X connect 25 0 26 0;
#X connect 26 0 42 0;
#X connect 27 0 28 0;
#X connect 28 0 42 0;
#X connect 29 0 30 0;
#X connect 30 0 42 0;
#X connect 31 0 32 0;
#X connect 32 0 42 0;
#X connect 33 0 34 0;
#X connect 34 0 42 0;
#X connect 35 0 36 0;
#X connect 36 0 42 0;
#X connect 41 0 6 1;
#X connect 41 1 8 1;
#X connect 41 2 10 1;
#X connect 41 3 12 1;
#X connect 41 4 14 1;
#X connect 41 5 16 1;
#X connect 41 6 18 1;
#X connect 41 7 20 1;
#X connect 41 8 22 1;
#X connect 41 9 24 1;
#X connect 41 10 26 1;
#X connect 41 11 28 1;
#X connect 41 12 30 1;
#X connect 41 13 32 1;
#X connect 41 14 34 1;
#X connect 41 15 36 1;
#X connect 43 0 0 0;
#X connect 44 0 47 1;
#X connect 45 0 46 0;
#X connect 46 0 3 1;
#X connect 47 0 1 0;
#X connect 48 0 5 0;
#X connect 48 1 7 0;
#X connect 48 2 9 0;
#X connect 48 3 11 0;
#X connect 48 4 13 0;
#X connect 48 5 15 0;
#X connect 48 6 17 0;
#X connect 48 7 19 0;
#X connect 48 8 21 0;
#X connect 48 9 23 0;
#X connect 48 10 25 0;
#X connect 48 11 27 0;
#X connect 48 12 29 0;
#X connect 48 13 31 0;
#X connect 48 14 33 0;
#X connect 48 15 35 0;
#X connect 49 0 48 0;
