#N canvas 73 158 450 442 10;
#X obj 82 259 escala;
#X obj 128 209 +;
#X obj 176 210 +;
#X obj 84 314 outlet;
#X obj 130 314 outlet;
#X obj 177 313 outlet;
#X floatatom 143 152 5 0 0 0 - - -;
#X floatatom 188 157 5 0 0 0 - - -;
#X obj 245 -52 loadbang;
#X obj 270 25 popup 124 25 #ffffff popup Unisono Mayor Menor;
#X obj 274 85 coll acordes;
#C restore;
#X obj 276 121 unpack f f;
#X obj 129 259 escala;
#X obj 176 259 escala;
#X obj 165 180 bng 15 250 50 0 empty empty empty 17 7 0 10 -262144
-1 -1;
#X obj 85 -48 inlet fundamental;
#X obj 176 -5 inlet acorde;
#X msg 269 -14 options Unisono Mayor Menor;
#X obj 262 157 inlet afinacion;
#X floatatom 262 182 5 0 0 0 - - -;
#X obj 313 181 inlet octava;
#X floatatom 314 205 5 0 0 0 - - -;
#X connect 0 0 3 0;
#X connect 1 0 12 0;
#X connect 2 0 13 0;
#X connect 6 0 14 0;
#X connect 6 0 1 1;
#X connect 7 0 14 0;
#X connect 7 0 2 1;
#X connect 8 0 17 0;
#X connect 9 0 10 0;
#X connect 10 0 11 0;
#X connect 11 0 6 0;
#X connect 11 1 7 0;
#X connect 12 0 4 0;
#X connect 13 0 5 0;
#X connect 14 0 1 0;
#X connect 14 0 2 0;
#X connect 15 0 0 0;
#X connect 15 0 1 0;
#X connect 15 0 2 0;
#X connect 16 0 9 0;
#X connect 17 0 9 0;
#X connect 18 0 19 0;
#X connect 19 0 0 1;
#X connect 19 0 12 1;
#X connect 19 0 13 1;
#X connect 20 0 21 0;
#X connect 21 0 0 2;
#X connect 21 0 12 2;
#X connect 21 0 13 2;
