#N canvas 317 134 777 595 10;
#X obj -30 -270 inlet;
#X obj 130 261 outlet~;
#X obj 96 125 osc~;
#X obj 127 208 *~;
#X obj 46 121 line~;
#X obj -20 -167 bng 15 250 50 0 empty empty empty 17 7 0 10 -262144
-1 -1;
#X obj 95 86 vline~;
#X floatatom 57 -123 5 0 0 0 - - -;
#X floatatom 140 -122 5 0 0 0 - - -;
#X floatatom 218 -120 5 0 0 0 - - -;
#X floatatom 261 -99 5 0 0 0 - - -;
#X msg 7 56 1 \, 0 500;
#X msg 99 39 \$1 \$2 \, \$3 \$4 \$2;
#X obj 101 -25 pack f f f f;
#X text 50 -155 frecuencia inicial;
#X text 220 -153 frecuencia final;
#X text 300 -108 duración frec final;
#X obj 161 -270 loadbang;
#X text 129 -102 duración a frec incial;
#X msg 56 -232 328;
#X msg 158 -227 1;
#X msg 215 -234 79;
#X msg 259 -230 34;
#X connect 0 0 5 0;
#X connect 2 0 3 0;
#X connect 3 0 1 0;
#X connect 4 0 3 1;
#X connect 5 0 11 0;
#X connect 5 0 13 0;
#X connect 6 0 2 0;
#X connect 7 0 13 0;
#X connect 8 0 13 1;
#X connect 9 0 13 2;
#X connect 10 0 13 3;
#X connect 11 0 4 0;
#X connect 12 0 6 0;
#X connect 13 0 12 0;
#X connect 17 0 19 0;
#X connect 17 0 20 0;
#X connect 17 0 21 0;
#X connect 17 0 22 0;
#X connect 19 0 7 0;
#X connect 20 0 8 0;
#X connect 21 0 9 0;
#X connect 22 0 10 0;
#X coords 0 595 1 594 85 140 0;
