#N canvas 60 60 1227 673 10;
#X obj 325 -398 bng 15 250 50 0 empty empty empty 17 7 0 10 -261234
-1 -1;
#X obj 213 253 *~;
#X obj 691 -198 envgen 200 140 1 0  ;
#X msg 589 -403 duration \$1;
#X obj 272 -198 envgen 200 140 1 0  ;
#X obj 228 108 line~;
#X obj 64 -199 envgen 200 140 1 0  ;
#X obj 387 113 line~;
#X floatatom 142 1 5 0 0 0 - - -;
#X obj 481 -199 envgen 200 140 1 0  ;
#X obj 300 96 line~;
#X obj 107 -515 loadbang;
#X msg 141 -399 222;
#X obj 585 -471 inlet duracion;
#X obj 325 -475 inlet bang;
#X obj 214 283 outlet~;
#X obj 146 132 +~;
#X obj 121 100 *~;
#X obj 69 23 sig~;
#X obj 154 44 sig~;
#X obj 197 34 sig~;
#X floatatom 208 -13 5 0 0 0 - - -;
#X msg 60 -320 0 32 1 168 1;
#X msg 710 -310 0 0 0.778571 200 0;
#X msg 641 -359 0 5.00023 1 157.064 0.828571 37.936 0;
#X msg 312 -327 0 61.0033 1 82.0511 1 2 0.671429 54.9456 0.578571 0
0;
#X text 705 -50 amplitud;
#X text 493 -52 Modulation index;
#X text 496 -48 comment;
#X text 277 -44 Harmonicity ratio;
#X text 71 -49 modulación carrier;
#X obj 175 199 simpleFM~;
#X connect 0 0 2 0;
#X connect 0 0 4 0;
#X connect 0 0 6 0;
#X connect 0 0 9 0;
#X connect 1 0 15 0;
#X connect 2 0 7 0;
#X connect 3 0 2 0;
#X connect 3 0 4 0;
#X connect 3 0 6 0;
#X connect 3 0 9 0;
#X connect 4 0 5 0;
#X connect 5 0 31 1;
#X connect 6 0 18 0;
#X connect 7 0 1 1;
#X connect 8 0 19 0;
#X connect 9 0 10 0;
#X connect 10 0 31 2;
#X connect 11 0 12 0;
#X connect 11 0 22 0;
#X connect 11 0 25 0;
#X connect 11 0 24 0;
#X connect 11 0 23 0;
#X connect 12 0 8 0;
#X connect 12 0 21 0;
#X connect 13 0 3 0;
#X connect 14 0 0 0;
#X connect 16 0 31 0;
#X connect 17 0 16 0;
#X connect 18 0 17 0;
#X connect 19 0 17 1;
#X connect 20 0 16 1;
#X connect 21 0 20 0;
#X connect 22 0 6 0;
#X connect 23 0 2 0;
#X connect 24 0 9 0;
#X connect 25 0 4 0;
#X connect 31 0 1 0;
