#N canvas 113 98 1059 636 10;
#X obj 424 -346 bng 15 250 50 0 empty empty empty 17 7 0 10 -262144
-1 -1;
#X obj 295 206 *~;
#X obj 638 -148 envgen 200 140 1 0  ;
#X msg 629 -274 duration \$1;
#X obj 221 -146 envgen 200 140 1 0  ;
#X obj 227 98 line~;
#X obj 308 90 line~;
#X obj 430 -148 envgen 200 140 1 0  ;
#X obj 265 95 line~;
#X floatatom 621 -353 0 0 0 0 - - -;
#X obj 240 -342 loadbang;
#X msg 228 -238 0 0 1 100 0;
#X obj 294 257 outlet~;
#X msg 271 -290 200;
#X obj 207 -407 inlet nota;
#X msg 227 -205 0 0 1 100 1;
#X obj 211 167 simpleFM~;
#X connect 0 0 2 0;
#X connect 0 0 4 0;
#X connect 0 0 7 0;
#X connect 1 0 12 0;
#X connect 2 0 6 0;
#X connect 3 0 2 0;
#X connect 3 0 4 0;
#X connect 3 0 7 0;
#X connect 4 0 5 0;
#X connect 5 0 16 1;
#X connect 6 0 1 1;
#X connect 7 0 8 0;
#X connect 8 0 16 2;
#X connect 9 0 3 0;
#X connect 10 0 11 0;
#X connect 10 0 13 0;
#X connect 10 0 15 0;
#X connect 11 0 2 0;
#X connect 13 0 3 0;
#X connect 14 0 0 0;
#X connect 14 0 16 0;
#X connect 15 0 4 0;
#X connect 15 0 7 0;
#X connect 16 0 1 0;
