#N canvas 123 127 997 595 10;
#X obj 421 151 noise~;
#X obj 452 196 vcf~;
#X msg 164 -112 duration \$1;
#X obj 221 -31 envgen 200 140 1 0  ;
#X obj 260 150 line~;
#X floatatom 553 45 5 0 0 0 - - -;
#X text 312 193 comment;
#X obj 300 -146 loadbang;
#X msg 547 -113 11111;
#X obj 365 262 *~;
#X obj 370 310 outlet~;
#X obj 102 -155 inlet;
#X obj 46 -154 inlet;
#X obj 285 293 print ENVGEN_LEFT;
#X msg 284 -108 0 18.3372 0.2 0 0.0142857 181.663 0;
#X connect 0 0 1 0;
#X connect 1 0 9 0;
#X connect 2 0 3 0;
#X connect 3 0 4 0;
#X connect 4 0 9 1;
#X connect 5 0 1 1;
#X connect 7 0 8 0;
#X connect 7 0 14 0;
#X connect 8 0 5 0;
#X connect 9 0 10 0;
#X connect 11 0 2 0;
#X connect 12 0 3 0;
#X connect 14 0 3 0;
