#N canvas 246 83 1002 641 10;
#X obj 116 354 output~;
#X obj 132 -62 tgl 15 0 empty empty empty 17 7 0 10 -232576 -1 -1 1
1;
#X obj 264 132 readsf~;
#X floatatom 625 -30 5 0 0 0 - - -;
#X msg 253 96 open snare10h.wav \, 1;
#X obj 416 46 16stepSeq;
#X obj 451 154 vsl 15 128 0 1 0 0 empty empty empty 0 -9 0 10 -261682
-1 -1 0 1;
#X obj 393 232 *~;
#X obj 629 202 vsl 15 128 0 1 0 0 empty empty empty 0 -9 0 10 -204800
-1 -1 0 1;
#X obj 571 255 *~;
#X obj 498 -51 tempoLFO;
#X floatatom 764 173 5 0 0 0 - - -;
#X floatatom 819 176 5 0 0 0 - - -;
#X floatatom 678 109 5 0 0 0 - - -;
#X obj 677 138 hradio 20 1 0 4 empty empty empty 0 -6 0 8 -262144 -260097
-4032 3;
#X obj 798 40 route 0 1 2 3;
#X msg 794 81 1 2;
#X obj 777 127 unpack f f;
#X msg 826 82 5 2;
#X msg 862 81 3 2;
#X msg 904 82 6 1;
#X obj 680 88 random 4;
#X obj 630 370 vsl 15 128 0 1 0 0 empty empty empty 0 -9 0 10 -262130
-1 -1 10200 1;
#X obj 572 423 *~;
#X obj 683 13 32stepSeq;
#X obj 770 231 acorde;
#X msg 376 -22 1 \, 2 \, 3 \, 4 \, 7 \, 9 \, 10 \, 11 \, 13 \, 15;
#X obj 381 -67 loadbang;
#X obj 84 43 16stepSeq;
#X obj 269 59 16stepSeq;
#X obj 536 70 16stepSeq;
#X obj 681 64 16stepSeq;
#X msg 229 -1 4 \, 11;
#X msg 109 6 1 \, 7;
#X msg 543 9 12;
#X msg 879 152 280;
#X msg 692 -40 16;
#X msg 750 19 1;
#X msg 601 -79 130;
#X obj 409 107 hihat~;
#X obj 169 166 bleep~;
#X obj 554 143 FMperc~;
#X obj 586 211 rev~;
#X obj 719 314 FMsynth~;
#X obj 707 418 rev~;
#X obj 770 326 FMsynth~;
#X obj 832 338 FMsynth~;
#X text 115 -77 encendido;
#X connect 1 0 38 0;
#X connect 1 0 5 0;
#X connect 1 0 24 0;
#X connect 1 0 28 0;
#X connect 1 0 29 0;
#X connect 1 0 30 0;
#X connect 1 0 31 0;
#X connect 2 0 0 0;
#X connect 2 0 0 1;
#X connect 3 0 5 1;
#X connect 3 0 24 1;
#X connect 3 0 28 1;
#X connect 3 0 29 1;
#X connect 3 0 30 1;
#X connect 3 0 31 1;
#X connect 3 0 39 1;
#X connect 3 0 41 1;
#X connect 4 0 2 0;
#X connect 5 0 39 0;
#X connect 6 0 7 1;
#X connect 7 0 0 1;
#X connect 7 0 0 0;
#X connect 8 0 9 1;
#X connect 9 0 0 1;
#X connect 9 0 0 0;
#X connect 10 0 3 0;
#X connect 11 0 25 0;
#X connect 12 0 25 1;
#X connect 13 0 14 0;
#X connect 14 0 15 0;
#X connect 15 0 16 0;
#X connect 15 1 18 0;
#X connect 15 2 19 0;
#X connect 15 3 20 0;
#X connect 16 0 17 0;
#X connect 17 0 11 0;
#X connect 17 1 12 0;
#X connect 18 0 17 0;
#X connect 19 0 17 0;
#X connect 20 0 17 0;
#X connect 21 0 13 0;
#X connect 22 0 23 1;
#X connect 23 0 0 0;
#X connect 23 0 0 1;
#X connect 24 0 21 0;
#X connect 25 0 43 0;
#X connect 25 1 45 0;
#X connect 25 2 46 0;
#X connect 26 0 5 3;
#X connect 27 0 26 0;
#X connect 27 0 32 0;
#X connect 27 0 33 0;
#X connect 27 0 34 0;
#X connect 27 0 35 0;
#X connect 27 0 36 0;
#X connect 27 0 37 0;
#X connect 28 0 40 0;
#X connect 29 0 4 0;
#X connect 30 0 41 0;
#X connect 31 0 21 0;
#X connect 32 0 29 3;
#X connect 33 0 28 3;
#X connect 34 0 30 3;
#X connect 35 0 25 2;
#X connect 36 0 24 3;
#X connect 37 0 31 3;
#X connect 38 0 3 0;
#X connect 39 0 7 0;
#X connect 40 0 0 0;
#X connect 40 0 0 1;
#X connect 41 0 42 0;
#X connect 42 0 9 0;
#X connect 43 0 44 0;
#X connect 44 0 23 0;
#X connect 45 0 44 0;
#X connect 46 0 44 0;
