#N canvas 164 98 1094 539 10;
#X obj 270 325 freeverb~;
#X msg 504 113 roomsize \$1;
#X msg 503 174 damping \$1;
#X msg 499 244 wet \$1;
#X msg 498 265 dry \$1;
#X msg 517 334 freeze \$1;
#X obj 517 317 tgl 15 0 empty empty empty 17 7 0 10 -262144 -1 -1 0
1;
#X obj 631 207 hsl 128 15 0 1 0 0 empty empty empty -2 -8 0 10 -204800
-1 -1 9200 1;
#X floatatom 628 226 5 0 0 0 - - -;
#X obj 559 248 expr 1-$f1;
#X obj 629 92 hsl 128 15 0 1 0 0 empty empty empty -2 -8 0 10 -261682
-1 -1 10400 1;
#X obj 631 149 hsl 128 15 0 1 0 0 empty empty empty -2 -8 0 10 -204786
-1 -1 6900 1;
#X floatatom 628 169 5 0 0 0 - - -;
#X floatatom 626 117 5 0 0 0 - - -;
#X text 608 323 Freeze the reverb;
#X text 678 234 Wet signal to dry signal ratio;
#X text 678 250 (0 : all dry \, 1 : all wet);
#X text 679 169 Damping level;
#X text 678 115 Roomize;
#X obj 271 422 outlet~;
#X obj 342 417 outlet~;
#X obj 265 184 inlet~;
#X msg 517 374 bypass \$1;
#X obj 517 357 tgl 15 0 empty empty empty 17 7 0 10 -262144 -1 -1 0
1;
#X text 608 383 the dry signal pass through.;
#X text 607 370 Trun the reverb off and let;
#X obj 322 184 inlet~;
#X connect 0 0 19 0;
#X connect 0 1 20 0;
#X connect 1 0 0 0;
#X connect 2 0 0 0;
#X connect 3 0 0 0;
#X connect 4 0 0 0;
#X connect 5 0 0 0;
#X connect 6 0 5 0;
#X connect 7 0 8 0;
#X connect 7 0 3 0;
#X connect 7 0 9 0;
#X connect 9 0 4 0;
#X connect 10 0 1 0;
#X connect 10 0 13 0;
#X connect 11 0 2 0;
#X connect 11 0 12 0;
#X connect 21 0 0 0;
#X connect 22 0 0 0;
#X connect 23 0 22 0;
#X connect 26 0 0 1;
