#N canvas 88 67 1059 636 10;
#X obj 390 -386 snapshot~;
#X obj 304 -531 tgl 15 0 empty empty empty 17 7 0 10 -262144 -1 -1
1 1;
#X obj 383 -338 abs;
#X floatatom 462 -339 5 0 0 0 - - -;
#X obj 390 -448 osc~ 0.1;
#X obj 385 -242 + 100;
#X text 344 -360;
#X floatatom 385 -209 5 0 0 0 - - -;
#X floatatom 394 -498 5 0 0 0 - - -;
#X text 500 -337 amplitud de modulación;
#X obj 385 -294 * 1;
#X text 434 -495 frecuencia;
#X text 483 -270 mínimo;
#X floatatom 444 -270 5 0 0 0 - - -;
#X text 385 -463;
#X obj 304 -409 metro 50;
#X obj 299 -572 inlet encendido;
#X obj 394 -537 inlet frecuencia;
#X obj 464 -378 inlet amplitud;
#X obj 471 -303 inlet mínimo;
#X obj 383 -144 outlet;
#X connect 0 0 2 0;
#X connect 1 0 15 0;
#X connect 2 0 10 0;
#X connect 3 0 10 1;
#X connect 4 0 0 0;
#X connect 5 0 7 0;
#X connect 7 0 20 0;
#X connect 8 0 4 0;
#X connect 10 0 5 0;
#X connect 13 0 5 1;
#X connect 15 0 0 0;
#X connect 16 0 1 0;
#X connect 17 0 8 0;
#X connect 18 0 3 0;
#X connect 19 0 13 0;
